<svg width="48.000000" height="48.000000" viewBox="0 0 48 48" fill="none" xmlns="http://www.w3.org/2000/svg" xmlns:xlink="http://www.w3.org/1999/xlink">
	<desc>
			Created with Pixso.
	</desc>
	<defs>
		<clipPath id="clip1_821">
			<rect width="48.000000" height="48.000000" fill="white" fill-opacity="0"/>
		</clipPath>
	</defs>
	<rect width="48.000000" height="48.000000" fill="#FFFFFF" fill-opacity="0"/>
	<g clip-path="url(#clip1_821)">
		<path d="M26 0C20.4961 0 16.0564 4.37378 16.0564 9.7959L16.0564 11.7551L8.19482 11.7551L8.10181 12.6123L4.12427 46.8979L4 48L48 48L47.8757 46.8979L43.8982 12.6123L43.8052 11.7551L35.9436 11.7551L35.9436 9.7959C35.9436 4.37378 31.5039 0 26 0ZM26 1.95923C30.4397 1.95923 33.9548 5.42212 33.9548 9.7959L33.9548 11.7551L18.0452 11.7551L18.0452 9.7959C18.0452 5.42212 21.5603 1.95923 26 1.95923ZM9.99707 13.7144L16.0564 13.7144L16.0564 15.949C15.4622 16.2896 15.0623 16.9094 15.0623 17.6326C15.0623 18.7156 15.9517 19.5918 17.0508 19.5918C18.1501 19.5918 19.0396 18.7156 19.0396 17.6326C19.0396 16.9094 18.6394 16.2896 18.0452 15.949L18.0452 13.7144L33.9548 13.7144L33.9548 15.949C33.3606 16.2896 32.9604 16.9094 32.9604 17.6326C32.9604 18.7156 33.8499 19.5918 34.9492 19.5918C36.0483 19.5918 36.9377 18.7156 36.9377 17.6326C36.9377 16.9094 36.5378 16.2896 35.9436 15.949L35.9436 13.7144L42.0029 13.7144L45.7627 46.0408L6.2373 46.0408L9.99707 13.7144Z" fill="#282828" fill-opacity="1.000000" fill-rule="evenodd"/>
	</g>
</svg>
