<svg width="70.000000" height="72.500000" viewBox="0 0 70 72.5" fill="none" xmlns="http://www.w3.org/2000/svg" xmlns:xlink="http://www.w3.org/1999/xlink">
	<desc>
			Created with Pixso.
	</desc>
	<defs>
		<clipPath id="clip1_104">
			<rect id="ground" width="35.833332" height="16.666666" transform="translate(17.500000 55.833252)" fill="white" fill-opacity="0"/>
		</clipPath>
	</defs>
	<circle id="bg" cx="35.000000" cy="35.000000" r="35.000000" fill="#339933" fill-opacity="1.000000"/>
	<g clip-path="url(#clip1_104)">
		<mask id="mask1_105" mask-type="alpha" maskUnits="userSpaceOnUse" x="19.520996" y="55.888916" width="32.457825" height="24.884254">
			<path id="Union" d="M31.6021 58.0659C32.0439 56.7983 33.25 55.8889 34.668 55.8889C35.4648 55.8889 36.1943 56.176 36.7593 56.6526C37.7612 56.1633 38.8872 55.8889 40.0776 55.8889C43.1064 55.8889 45.7202 57.6672 46.9316 60.2366C48.248 60.3828 49.3267 61.3164 49.6865 62.5557C51.082 63.6448 51.979 65.342 51.979 67.249C51.979 70.5354 49.3145 73.1997 46.0283 73.1997C45.7671 73.1997 45.5093 73.1829 45.2568 73.1501C44.2915 77.5115 40.4014 80.7732 35.75 80.7732C30.6973 80.7732 26.5435 76.925 26.0596 71.9998C25.6953 72.0771 25.3179 72.1177 24.9307 72.1177C21.9429 72.1177 19.521 69.6958 19.521 66.708C19.521 63.9719 21.5527 61.71 24.1899 61.3489C24.7871 60.0425 26.105 59.1348 27.6353 59.1348C28.0117 59.1348 28.375 59.1895 28.7183 59.2917C29.4956 58.5962 30.4976 58.1467 31.6021 58.0659Z" clip-rule="evenodd" fill="#FFFFFF" fill-opacity="1.000000" fill-rule="evenodd"/>
		</mask>
		<g mask="url(#mask1_105)">
			<circle id="Ellipse 11" cx="35.000000" cy="35.000000" r="35.000000" fill="#FFFFFF" fill-opacity="1.000000"/>
		</g>
	</g>
	<path id="plant" d="M39.4893 36.2493C38.6982 37.0039 37.8643 38.0256 37.1064 39.3958C36.3579 36.6997 35.4136 34.7231 34.4595 33.2761C38.8379 18.6895 17.5 18.1667 17.5 18.1667C17.5 18.1667 18.123 36.3975 29.2666 35.979C29.2441 34.7583 29.0547 33.5239 28.7891 32.3665C28.6152 31.6118 28.4087 30.8923 28.1958 30.2283C27.4829 28.0254 26.6787 26.4619 26.6787 26.4619C27.4912 27.5503 28.2104 28.5889 28.8457 29.5652C31.0322 32.9197 32.2256 35.5286 32.7803 36.9067C34.1499 39.8403 35.3799 44.6655 35.3799 52.5513C35.3799 53.4438 36.1069 54.1667 36.9985 54.1667C37.8926 54.1667 38.6191 53.4438 38.6191 52.5513C38.6191 49.9954 38.4951 47.7214 38.272 45.6929C38.7881 43.2175 39.5674 41.4604 40.374 40.2158C40.9038 39.2078 41.8809 37.4814 43.1968 35.7188C44.3691 34.1506 45.8145 32.5532 47.4492 31.4128C47.4492 31.4128 44.0967 35.1135 43.8799 38.7361C53.1401 39.218 53.5 24.6902 53.5 24.6902C53.5 24.6902 36.5527 25.2671 39.4893 36.2493Z" fill="#FFFFFF" fill-opacity="1.000000" fill-rule="evenodd"/>
</svg>
